<?xml version="1.0" standalone="no"?>
<!DOCTYPE svg PUBLIC "-//W3C//DTD SVG 20010904//EN"
 "http://www.w3.org/TR/2001/REC-SVG-20010904/DTD/svg10.dtd">
<svg version="1.0" xmlns="http://www.w3.org/2000/svg"
 width="1661.000000pt" height="497.000000pt" viewBox="0 0 1661.000000 497.000000"
 preserveAspectRatio="xMidYMid meet">

<g transform="translate(0.000000,497.000000) scale(0.100000,-0.100000)"
fill="#000000" stroke="none">
<path d="M3008 4960 c-123 -21 -226 -102 -281 -218 -29 -60 -32 -76 -31 -157
0 -69 6 -104 23 -147 31 -80 106 -159 189 -200 62 -31 74 -33 167 -33 93 0
105 2 167 33 83 41 158 120 189 200 35 87 33 217 -3 295 -34 72 -73 119 -133
163 -79 56 -191 81 -287 64z"/>
<path d="M13972 4959 c-118 -20 -213 -93 -269 -207 -36 -72 -38 -81 -38 -171
0 -83 4 -104 27 -153 37 -80 107 -152 187 -191 61 -30 73 -32 166 -32 87 0
107 3 155 26 273 129 307 491 62 667 -76 55 -189 78 -290 61z"/>
<path d="M9510 4475 c-454 -75 -843 -363 -1052 -778 -53 -106 -112 -289 -134
-412 -23 -133 -23 -365 0 -500 116 -669 672 -1169 1336 -1202 304 -15 601 71
865 251 109 74 270 232 348 343 69 97 156 264 187 360 13 37 25 73 27 79 3 8
-27 13 -89 17 -62 3 -114 13 -158 29 l-65 24 -55 -56 c-48 -49 -64 -59 -123
-75 -60 -16 -76 -17 -130 -6 -34 7 -73 15 -87 18 -21 3 -32 -5 -65 -47 -86
-109 -256 -217 -405 -257 -95 -25 -272 -23 -372 5 -225 62 -402 209 -503 417
-99 203 -110 406 -36 622 124 361 509 586 871 509 82 -18 312 -93 365 -119 22
-11 82 -30 133 -43 50 -12 115 -35 144 -51 67 -36 169 -138 198 -197 12 -25
39 -67 60 -93 52 -62 96 -146 115 -218 19 -73 19 -115 2 -182 l-14 -52 36 -15
c59 -23 126 -29 180 -16 l49 12 7 111 c25 415 -132 825 -430 1122 -202 202
-434 329 -715 390 -105 23 -380 29 -490 10z"/>
<path d="M3682 4408 c-19 -19 -17 -2731 2 -2747 9 -8 109 -11 347 -9 l334 3 5
415 c3 228 9 421 13 428 6 9 54 12 180 12 411 0 609 49 806 198 94 72 169 163
220 266 205 417 141 911 -157 1202 -151 147 -320 210 -632 234 -198 15 -1103
13 -1118 -2z m1099 -642 c81 -18 135 -44 177 -87 50 -51 65 -94 70 -194 5
-111 -19 -184 -78 -244 -70 -70 -124 -84 -354 -89 -184 -4 -201 -3 -213 14
-16 23 -19 564 -3 595 10 18 23 19 173 19 101 0 187 -6 228 -14z"/>
<path d="M5882 4408 c-17 -17 -17 -2729 0 -2746 9 -9 96 -12 330 -12 264 0
318 2 325 14 4 8 5 302 1 653 -4 351 -4 646 -1 656 3 12 12 17 28 15 19 -2
123 -142 500 -671 l476 -667 302 2 302 3 3 1374 c2 1093 0 1376 -10 1383 -18
11 -630 10 -647 -1 -12 -8 -13 -112 -7 -711 7 -722 7 -730 -31 -730 -8 0 -228
323 -490 718 -261 394 -481 720 -487 724 -20 14 -581 9 -594 -4z"/>
<path d="M14646 4412 c-8 -13 -10 -2738 -2 -2750 11 -18 1540 -17 1554 1 9 11
19 82 59 444 14 125 14 154 4 167 -12 14 -66 16 -456 16 -342 0 -445 3 -452
13 -6 7 -11 401 -12 1057 -2 575 -5 1048 -7 1052 -7 11 -681 10 -688 0z"/>
<path d="M222 4398 c-9 -9 -12 -327 -12 -1372 0 -749 4 -1367 8 -1374 7 -9 83
-12 348 -10 l339 3 3 524 c1 369 5 528 13 538 10 11 88 13 428 11 l416 -3 3
-524 c1 -367 6 -528 13 -538 16 -18 669 -19 687 -1 9 9 12 328 12 1375 0 1337
0 1362 -19 1373 -25 13 -650 14 -671 0 -13 -8 -16 -81 -20 -522 l-5 -513 -415
-3 c-381 -2 -416 -1 -427 15 -10 13 -13 133 -13 519 0 448 -2 503 -16 508 -9
3 -161 6 -338 6 -237 0 -325 -3 -334 -12z"/>
<path d="M10822 4354 c-8 -13 6 -33 66 -93 233 -237 395 -523 481 -849 l27
-103 42 223 c69 361 70 364 103 398 25 24 39 30 76 30 61 0 96 -36 111 -117
12 -58 33 -252 52 -483 23 -278 61 -646 69 -664 4 -11 12 34 19 115 24 252 73
682 87 756 26 136 79 197 150 173 34 -11 75 -52 75 -75 0 -6 34 -27 76 -45
226 -99 361 -248 414 -456 33 -130 23 -321 -25 -454 -41 -114 -141 -239 -245
-305 -90 -57 -315 -132 -366 -122 -20 3 -22 -2 -32 -109 -16 -164 -52 -224
-133 -224 -51 0 -93 37 -117 103 -11 29 -31 124 -46 212 -23 146 -86 675 -102
870 -11 129 -18 131 -48 10 -34 -136 -78 -251 -116 -304 -17 -22 -30 -53 -30
-68 0 -16 -11 -80 -24 -143 -72 -343 -234 -646 -487 -914 -55 -58 -79 -91 -75
-102 5 -14 72 -15 673 -11 625 4 675 6 779 25 381 72 744 294 970 594 170 227
256 480 256 758 1 351 -131 661 -392 920 -223 222 -487 363 -794 425 -191 38
-339 45 -931 45 -504 0 -555 -1 -563 -16z"/>
<path d="M2720 2962 c0 -1160 2 -1292 16 -1306 13 -14 58 -16 339 -16 281 0
326 2 339 16 14 14 16 146 16 1305 l0 1289 -55 -45 c-134 -108 -279 -141 -426
-95 -54 16 -152 68 -169 89 -3 3 -18 17 -33 30 l-27 24 0 -1291z"/>
<path d="M13690 2956 c0 -1287 0 -1295 20 -1306 14 -7 127 -10 345 -8 277 3
327 5 335 18 10 15 15 2590 5 2590 -2 0 -19 -14 -36 -31 -170 -166 -439 -170
-621 -9 l-48 42 0 -1296z"/>
<path d="M7915 1460 c-46 -51 -10 -130 59 -130 65 0 101 85 56 130 -27 27 -90
27 -115 0z"/>
<path d="M9265 1193 c-179 -24 -356 -145 -438 -300 -50 -96 -67 -168 -67 -288
0 -175 53 -308 170 -425 222 -222 633 -230 868 -15 104 95 164 211 182 357 25
202 -44 399 -183 523 -63 57 -192 121 -282 140 -65 14 -180 17 -250 8z m246
-119 c219 -65 351 -241 352 -469 1 -140 -38 -240 -131 -337 -118 -124 -274
-175 -448 -144 -105 18 -181 55 -254 123 -105 97 -154 213 -153 363 1 224 142
407 356 465 72 19 211 19 278 -1z"/>
<path d="M13283 1190 c-229 -42 -415 -218 -469 -446 -22 -92 -14 -255 15 -338
62 -174 189 -303 361 -363 98 -34 260 -42 367 -20 91 20 187 65 243 115 l44
39 -38 38 c-26 26 -42 35 -51 29 -7 -5 -31 -23 -55 -41 -119 -90 -314 -112
-473 -53 -120 45 -230 155 -277 277 -28 70 -37 205 -21 283 46 222 248 380
484 380 133 0 235 -35 321 -110 l33 -29 39 40 39 41 -35 30 c-102 88 -216 129
-370 134 -58 1 -128 -1 -157 -6z"/>
<path d="M526 1158 c-7 -18 -125 -276 -261 -573 -136 -297 -249 -546 -252
-552 -4 -10 12 -13 58 -13 l64 1 69 154 69 155 330 -2 330 -3 67 -150 67 -150
66 -3 66 -3 -153 333 c-84 183 -204 446 -267 585 l-114 252 -62 1 c-61 0 -63
-1 -77 -32z m218 -409 c75 -168 136 -309 136 -313 0 -3 -126 -6 -281 -6 -221
0 -280 3 -276 13 11 27 269 603 274 610 3 5 6 7 8 5 1 -2 64 -141 139 -309z"/>
<path d="M1400 605 l0 -585 60 0 60 0 0 153 0 152 121 122 121 121 236 -271
235 -272 75 -3 c71 -3 74 -2 61 15 -8 9 -128 152 -267 316 -139 165 -252 303
-250 308 3 9 152 167 366 389 l129 135 -67 3 -67 3 -189 -193 c-104 -106 -260
-265 -346 -353 l-158 -160 0 353 0 352 -60 0 -60 0 0 -585z"/>
<path d="M2911 1128 c-15 -35 -134 -296 -265 -580 -130 -285 -236 -520 -236
-523 0 -3 28 -5 62 -3 l62 3 68 150 67 150 332 0 331 0 67 -150 67 -150 62 -3
c34 -2 62 1 62 5 0 5 -118 267 -263 583 l-263 575 -62 3 -62 3 -29 -63z m369
-693 c0 -3 -126 -5 -280 -5 -154 0 -280 2 -280 5 0 5 257 581 272 609 8 15 35
-38 149 -293 76 -171 139 -313 139 -316z"/>
<path d="M3800 605 l0 -586 318 3 c293 4 322 6 382 26 205 68 357 237 390 433
55 326 -109 597 -415 685 -49 14 -115 18 -367 22 l-308 4 0 -587z m630 461
c218 -62 350 -236 350 -460 0 -141 -45 -253 -136 -342 -115 -113 -226 -144
-521 -144 l-203 0 0 486 0 486 228 -5 c163 -3 242 -9 282 -21z"/>
<path d="M5180 605 l0 -585 415 0 415 0 0 50 0 50 -352 2 -353 3 -3 218 -2
217 305 0 305 0 0 50 0 50 -302 2 -303 3 0 210 0 210 343 3 342 2 0 50 0 50
-405 0 -405 0 0 -585z"/>
<path d="M6310 606 l0 -586 55 0 55 0 0 460 c0 253 3 460 8 460 4 0 108 -174
232 -385 220 -377 226 -385 256 -385 31 0 36 7 260 391 l229 392 3 -467 2
-466 55 0 55 0 0 585 0 585 -48 0 -47 0 -250 -430 c-137 -237 -253 -429 -257
-428 -5 2 -120 194 -258 428 l-249 425 -50 3 -51 3 0 -585z"/>
<path d="M7910 605 l0 -585 60 0 60 0 0 585 0 585 -60 0 -60 0 0 -585z"/>
<path d="M10270 605 l0 -585 60 0 60 0 2 248 3 247 303 3 302 2 0 50 0 50
-305 0 -305 0 2 233 3 232 338 3 337 2 0 50 0 50 -400 0 -400 0 0 -585z"/>
<path d="M11330 605 l0 -585 60 0 60 0 2 248 3 247 303 3 302 2 0 50 0 50
-305 0 -305 0 2 233 3 232 338 3 337 2 0 50 0 50 -400 0 -400 0 0 -585z"/>
<path d="M12400 605 l0 -585 60 0 60 0 0 585 0 585 -60 0 -60 0 0 -585z"/>
<path d="M14110 605 l0 -585 60 0 60 0 0 585 0 585 -60 0 -60 0 0 -585z"/>
<path d="M14699 607 l-266 -582 60 -3 c41 -2 63 1 68 10 5 7 37 77 71 155 l63
143 331 0 330 0 69 -155 68 -155 64 0 c48 0 64 3 60 13 -4 10 -491 1074 -520
1135 -9 19 -18 22 -71 22 l-61 0 -266 -583z m449 188 c61 -137 122 -276 136
-307 l26 -58 -284 0 -284 0 141 315 c77 174 143 312 147 308 4 -5 57 -120 118
-258z"/>
<path d="M15820 605 l0 -585 390 0 390 0 0 50 0 50 -330 0 -330 0 0 535 0 535
-60 0 -60 0 0 -585z"/>
</g>
</svg>
